<svg width="61" height="61" viewBox="0 0 61 61" fill="none" xmlns="http://www.w3.org/2000/svg">
<path d="M31.7202 42.0488C31.3649 42.4373 30.8629 42.6586 30.3364 42.6586C29.8099 42.6586 29.3079 42.4373 28.9527 42.0488L18.9526 31.1113C18.2539 30.3471 18.307 29.1611 19.0712 28.4623C19.8355 27.7636 21.0215 27.8166 21.7202 28.5808L28.4614 35.9541V8.28357C28.4614 7.24804 29.3009 6.40857 30.3364 6.40857C31.3719 6.40857 32.2114 7.24804 32.2114 8.28357V35.9541L38.9527 28.5808C39.6514 27.8166 40.8374 27.7636 41.6017 28.4623C42.3659 29.1611 42.4189 30.3471 41.7202 31.1113L31.7202 42.0488Z" fill="#1C274C"/>
<path d="M9.71143 38.2836C9.71143 37.2481 8.87198 36.4086 7.83643 36.4086C6.8009 36.4086 5.96143 37.2481 5.96143 38.2836V38.4208C5.96138 41.8398 5.96133 44.5956 6.25273 46.7631C6.55528 49.0133 7.2025 50.9078 8.7073 52.4126C10.2121 53.9176 12.1068 54.5648 14.3571 54.8673C16.5245 55.1586 19.2803 55.1586 22.6993 55.1586H37.9737C41.3927 55.1586 44.1484 55.1586 46.3159 54.8673C48.5662 54.5648 50.4607 53.9176 51.9657 52.4126C53.4704 50.9078 54.1177 49.0133 54.4202 46.7631C54.7114 44.5956 54.7114 41.8398 54.7114 38.4208V38.2836C54.7114 37.2481 53.8719 36.4086 52.8364 36.4086C51.8009 36.4086 50.9614 37.2481 50.9614 38.2836C50.9614 41.8721 50.9574 44.3748 50.7037 46.2633C50.4569 48.0978 50.0059 49.0691 49.3139 49.7611C48.6219 50.4531 47.6507 50.9041 45.8162 51.1508C43.9277 51.4046 41.4249 51.4086 37.8364 51.4086H22.8364C19.2479 51.4086 16.7451 51.4046 14.8567 51.1508C13.0223 50.9041 12.0509 50.4531 11.359 49.7611C10.6671 49.0691 10.2159 48.0978 9.9693 46.2633C9.7154 44.3748 9.71143 41.8721 9.71143 38.2836Z" fill="#1C274C"/>
</svg>
