<svg width="23" height="32" viewBox="0 0 23 32" fill="none" xmlns="http://www.w3.org/2000/svg">
<path d="M0 5.98702C0 2.68048 2.68049 0 5.98706 0H16.2601C19.5666 0 22.2471 2.68048 22.2471 5.98702C22.2471 8.08075 21.1724 9.9235 19.5444 10.9936C21.1724 12.0637 22.2471 13.9064 22.2471 16.0001C22.2471 19.3067 19.5666 21.9872 16.2601 21.9872H16.1301C14.5799 21.9872 13.1674 21.3981 12.1041 20.4315V25.9479C12.1041 29.2986 9.35356 32 6.01931 32C2.72101 32 0 29.3277 0 26.0129C0 23.9193 1.07466 22.0767 2.70245 21.0066C1.07466 19.9364 0 18.0938 0 16.0001C0 13.9064 1.07475 12.0637 2.70266 10.9936C1.07475 9.9235 0 8.08075 0 5.98702ZM10.143 11.9742H5.98706C3.76357 11.9742 1.96111 13.7767 1.96111 16.0001C1.96111 18.215 3.74967 20.0121 5.96131 20.026C5.96987 20.0259 5.97844 20.0259 5.98706 20.0259H10.143V11.9742ZM12.1041 16.0001C12.1041 18.2236 13.9066 20.0261 16.1301 20.0261H16.2601C18.4836 20.0261 20.286 18.2236 20.286 16.0001C20.286 13.7767 18.4836 11.9742 16.2601 11.9742H16.1301C13.9066 11.9742 12.1041 13.7767 12.1041 16.0001ZM5.98706 21.9872C5.97844 21.9872 5.96987 21.9871 5.96131 21.9871C3.74967 22.0009 1.96111 23.7981 1.96111 26.0129C1.96111 28.2283 3.78766 30.0389 6.01931 30.0389C8.28694 30.0389 10.143 28.1991 10.143 25.9479V21.9872H5.98706ZM5.98706 1.96111C3.76357 1.96111 1.96111 3.76358 1.96111 5.98702C1.96111 8.2105 3.76357 10.0129 5.98706 10.0129H10.143V1.96111H5.98706ZM12.1041 10.0129H16.2601C18.4836 10.0129 20.286 8.2105 20.286 5.98702C20.286 3.76358 18.4836 1.96111 16.2601 1.96111H12.1041V10.0129Z" fill="black"/>
</svg>
