<svg width="32" height="32" viewBox="0 0 32 32" fill="none" xmlns="http://www.w3.org/2000/svg">
<path d="M18.874 9.93491L16.6 5.58391C16.484 5.36691 16.259 5.22091 16 5.22091C15.741 5.22091 15.516 5.36591 15.402 5.57991L15.4 5.58391L5.41497 23.4779L18.874 9.93491ZM26.852 25.2019L24.04 7.70691C23.988 7.38191 23.709 7.13591 23.373 7.13591C23.184 7.13591 23.014 7.21291 22.891 7.33791L5.14697 25.2029L14.964 30.7349C15.25 30.8979 15.592 30.9949 15.956 30.9949C16.32 30.9949 16.663 30.8989 16.958 30.7299L16.948 30.7349L26.852 25.2019ZM5.86497 20.5889L8.81997 1.58091C8.87097 1.25291 9.15097 1.00391 9.48997 1.00391C9.74797 1.00391 9.97297 1.14791 10.087 1.36091L10.089 1.36491L13.267 7.32691L5.86497 20.5889Z" fill="black"/>
</svg>
