<svg width="40" height="40" viewBox="0 0 40 40" fill="none" xmlns="http://www.w3.org/2000/svg">
<g clip-path="url(#clip0_45_9)">
<path fill-rule="evenodd" clip-rule="evenodd" d="M0 17.7778C0 9.39724 -2.6491e-07 5.207 2.60349 2.60349C5.207 -2.6491e-07 9.39724 0 17.7778 0H22.2222C30.6027 0 34.7931 -2.6491e-07 37.3964 2.60349C40 5.207 40 9.39724 40 17.7778V22.2222C40 30.6027 40 34.7931 37.3964 37.3964C34.7931 40 30.6027 40 22.2222 40H17.7778C9.39724 40 5.207 40 2.60349 37.3964C-2.6491e-07 34.7931 0 30.6027 0 22.2222V17.7778ZM33.3333 10C33.3333 11.841 31.8409 13.3333 30 13.3333C28.1591 13.3333 26.6667 11.841 26.6667 10C26.6667 8.15904 28.1591 6.66667 30 6.66667C31.8409 6.66667 33.3333 8.15904 33.3333 10ZM24.4444 22.2222C24.4444 24.6769 22.4547 26.6667 20 26.6667C17.5453 26.6667 15.5556 24.6769 15.5556 22.2222C15.5556 19.7676 17.5453 17.7778 20 17.7778C22.4547 17.7778 24.4444 19.7676 24.4444 22.2222ZM28.8889 22.2222C28.8889 27.1313 24.9091 31.1111 20 31.1111C15.0908 31.1111 11.1111 27.1313 11.1111 22.2222C11.1111 17.3131 15.0908 13.3333 20 13.3333C24.9091 13.3333 28.8889 17.3131 28.8889 22.2222Z" fill="#8B5CF6"/>
</g>
<defs>
<clipPath id="clip0_45_9">
<rect width="40" height="40" fill="white"/>
</clipPath>
</defs>
</svg>
