<svg width="32" height="32" viewBox="0 0 32 32" fill="none" xmlns="http://www.w3.org/2000/svg">
<path d="M15.821 23.1849C15.821 23.1849 15.821 12.8239 16.165 12.8249C16.431 12.8249 16.777 26.1899 16.777 26.1899C16.301 26.1339 15.821 23.9909 15.821 23.1849ZM22.489 12.9449C21.57 8.92888 19.557 5.47588 16.781 2.81088L16.774 2.80488C16.436 2.28888 16.127 1.69688 15.879 1.07288L15.855 1.00488C15.856 1.02488 15.856 1.04888 15.856 1.07288C15.856 1.63788 15.603 2.14288 15.204 2.48188L15.201 2.48388C11.627 5.51788 9.35298 9.98888 9.27798 14.9919V15.0049C9.27698 15.0669 9.27698 15.1399 9.27698 15.2129C9.27698 20.1699 11.662 24.5699 15.347 27.3279L15.386 27.3559L15.473 27.4189C15.6336 28.6082 15.771 29.8002 15.885 30.9949H16.486C16.652 29.5039 16.876 28.1989 17.169 26.9189L17.123 27.1579C17.519 26.8829 17.865 26.5979 18.188 26.2889L18.185 26.2919C20.986 23.6949 22.734 19.9949 22.734 15.8879C22.734 15.8269 22.734 15.7669 22.733 15.7059V15.7149C22.73 14.7339 22.641 13.7749 22.472 12.8439L22.487 12.9429L22.489 12.9449Z" fill="black"/>
</svg>
