<svg width="32" height="32" viewBox="0 0 32 32" fill="none" xmlns="http://www.w3.org/2000/svg">
<path d="M16 31.75C15.5813 31.75 15.1563 31.6375 14.7875 31.425L10.9313 29.1438C10.3563 28.8188 10.6375 28.7063 10.825 28.6438C11.5938 28.375 11.75 28.3188 12.5688 27.85C12.6563 27.8 12.7688 27.8188 12.8563 27.875L15.8188 29.6313C15.925 29.6938 16.075 29.6938 16.175 29.6313L27.7188 22.9688C27.825 22.9063 27.8938 22.7813 27.8938 22.6563V9.3313C27.8938 9.20005 27.825 9.0813 27.7125 9.01255L16.175 2.3563C16.0688 2.2938 15.925 2.2938 15.8188 2.3563L4.28751 9.0188C4.17501 9.0813 4.10626 9.2063 4.10626 9.33755V22.6563C4.10626 22.7813 4.17501 22.9063 4.28751 22.9625L7.45001 24.7875C9.16876 25.6438 10.2188 24.6375 10.2188 23.6188V10.4688C10.2188 10.2813 10.3688 10.1375 10.5563 10.1375H12.0188C12.2 10.1375 12.3563 10.2813 12.3563 10.4688V23.625C12.3563 25.9125 11.1063 27.225 8.93751 27.225C8.26876 27.225 7.74376 27.225 6.28126 26.5L3.25626 24.7563C2.50626 24.325 2.04376 23.5188 2.04376 22.65V9.3313C2.04376 8.4688 2.50626 7.6563 3.25626 7.22505L14.7875 0.562549C15.5188 0.150049 16.4875 0.150049 17.2125 0.562549L28.7563 7.2313C29.5063 7.66255 29.9688 8.4688 29.9688 9.33755V22.6563C29.9688 23.5188 29.5063 24.3251 28.7563 24.7626L17.2125 31.425C16.8438 31.6375 16.425 31.75 16 31.75ZM25.3188 18.6188C25.3188 16.125 23.6313 15.4625 20.0875 14.9938C16.5 14.5188 16.1375 14.275 16.1375 13.4375C16.1375 12.7438 16.4438 11.8188 19.1 11.8188C21.4688 11.8188 22.3438 12.3313 22.7063 13.9313C22.7375 14.0813 22.875 14.1938 23.0313 14.1938H24.5313C24.625 14.1938 24.7125 14.1563 24.775 14.0875C24.8375 14.0188 24.8688 13.925 24.8625 13.8313C24.6313 11.075 22.8 9.7938 19.1 9.7938C15.8063 9.7938 13.8438 11.1813 13.8438 13.5125C13.8438 16.0375 15.8 16.7375 18.9563 17.05C22.7375 17.4188 23.0313 17.975 23.0313 18.7188C23.0313 20.0063 21.9938 20.5563 19.5625 20.5563C16.5063 20.5563 15.8375 19.7875 15.6125 18.2688C15.5875 18.1063 15.45 17.9875 15.2813 17.9875H13.7875C13.6 17.9875 13.4563 18.1375 13.4563 18.3188C13.4563 20.2625 14.5125 22.5813 19.5688 22.5813C23.2188 22.575 25.3188 21.1313 25.3188 18.6188Z" fill="black"/>
</svg>
