<svg width="32" height="32" viewBox="0 0 32 32" fill="none" xmlns="http://www.w3.org/2000/svg">
<g clip-path="url(#clip0_44_46)">
<path d="M16.0013 6.3999C11.7347 6.3999 9.06801 8.53324 8.00134 12.7999C9.60134 10.6666 11.468 9.86657 13.6013 10.3999C14.8187 10.7039 15.688 11.5866 16.652 12.5652C18.2213 14.1572 20.036 15.9999 24.0013 15.9999C28.268 15.9999 30.9347 13.8666 32.0013 9.5999C30.4013 11.7332 28.5347 12.5332 26.4013 11.9999C25.184 11.6959 24.3147 10.8132 23.3507 9.83457C21.7827 8.24257 19.968 6.3999 16.0013 6.3999ZM8.00134 15.9999C3.73468 15.9999 1.06801 18.1332 0.00134277 22.3999C1.60134 20.2666 3.46801 19.4666 5.60134 19.9999C6.81868 20.3039 7.68801 21.1866 8.65201 22.1652C10.2213 23.7572 12.036 25.5999 16.0013 25.5999C20.268 25.5999 22.9347 23.4666 24.0013 19.1999C22.4013 21.3332 20.5347 22.1332 18.4013 21.5999C17.184 21.2959 16.3147 20.4132 15.3507 19.4346C13.7827 17.8426 11.968 15.9999 8.00134 15.9999Z" fill="black"/>
</g>
<defs>
<clipPath id="clip0_44_46">
<rect width="32" height="32" fill="white"/>
</clipPath>
</defs>
</svg>
