<svg width="60" height="60" viewBox="0 0 60 60" fill="none" xmlns="http://www.w3.org/2000/svg">
<g clip-path="url(#clip0_54_3)">
<path d="M0 30V60H30H60V30V0H30H0V30Z" fill="#007ACC"/>
<path d="M13.2683 30.1991L13.2492 32.6562H17.154H21.0588L21.0588 43.7514V54.8467H23.8207H26.5826V43.7514L26.5826 32.6562H30.4873H34.3921V30.2467C34.3921 28.9133 34.3635 27.7991 34.3254 27.7705C34.2969 27.7324 29.5445 27.7133 23.7826 27.7229L13.2969 27.7514L13.2683 30.1991Z" fill="white"/>
<path d="M48.414 27.6817C49.9378 28.0626 51.0997 28.7388 52.1664 29.8436C52.7187 30.4341 53.5378 31.5103 53.6044 31.7674C53.6235 31.8436 51.014 33.596 49.433 34.5769C49.3759 34.615 49.1473 34.3674 48.8902 33.9865C48.1187 32.8626 47.3092 32.3769 46.0711 32.2912C44.2521 32.1674 43.0806 33.1198 43.0902 34.7103C43.0902 35.1769 43.1568 35.4531 43.3473 35.8341C43.7473 36.6626 44.4902 37.1579 46.8235 38.1674C51.1187 40.015 52.9568 41.2341 54.0997 42.9674C55.3759 44.9007 55.6616 47.9865 54.7949 50.2817C53.8425 52.7769 51.4806 54.4722 48.1568 55.0341C47.1283 55.215 44.6902 55.1864 43.5854 54.9864C41.1759 54.5579 38.8902 53.3674 37.4806 51.8055C36.9283 51.196 35.8521 49.6055 35.9187 49.4912C35.9473 49.4531 36.1949 49.3007 36.4711 49.1388C36.7378 48.9865 37.7473 48.4055 38.6997 47.8531L40.4235 46.8531L40.7854 47.3864C41.2902 48.1579 42.3949 49.215 43.0616 49.5674C44.9759 50.5769 47.6044 50.4341 48.8997 49.2722C49.4521 48.7674 49.6806 48.2436 49.6806 47.4722C49.6806 46.7769 49.5949 46.4722 49.233 45.9484C48.7663 45.2817 47.814 44.7198 45.1092 43.5484C42.014 42.215 40.6806 41.3865 39.4616 40.0722C38.7568 39.3103 38.0902 38.0912 37.814 37.0722C37.5854 36.2245 37.5283 34.1007 37.7092 33.2436C38.3473 30.2531 40.6044 28.1674 43.8616 27.5484C44.9187 27.3484 47.3759 27.4245 48.414 27.6817Z" fill="white"/>
</g>
<defs>
<clipPath id="clip0_54_3">
<rect width="60" height="60" fill="white"/>
</clipPath>
</defs>
</svg>
