<svg width="32" height="32" viewBox="0 0 32 32" fill="none" xmlns="http://www.w3.org/2000/svg">
<rect width="32" height="32" rx="5" fill="#040D12"/>
<path d="M20.0713 23H17.1172V6.91895H20.0713V17.0596L24.4434 11.5166H27.8164L24.0029 16.3076L27.8164 23H24.4434L22.1123 18.8213L20.0713 21.5283V23Z" fill="#F4F2EE"/>
<path d="M16.2568 23H15.5479L14.4092 21.4209C14.1299 21.6715 13.8327 21.9079 13.5176 22.1299C13.2096 22.3447 12.8838 22.5345 12.54 22.6992C12.1963 22.8568 11.8418 22.9821 11.4766 23.0752C11.1185 23.1683 10.7533 23.2148 10.3809 23.2148C9.57161 23.2148 8.80892 23.0788 8.09277 22.8066C7.38379 22.5345 6.76074 22.1406 6.22363 21.625C5.69368 21.1022 5.27474 20.4648 4.9668 19.7129C4.65885 18.9609 4.50488 18.1051 4.50488 17.1455C4.50488 16.2503 4.65885 15.4303 4.9668 14.6855C5.27474 13.9336 5.69368 13.2891 6.22363 12.752C6.76074 12.2148 7.38379 11.7995 8.09277 11.5059C8.80892 11.2051 9.57161 11.0547 10.3809 11.0547C10.7533 11.0547 11.1221 11.1012 11.4873 11.1943C11.8525 11.2874 12.207 11.4163 12.5508 11.5811C12.8945 11.7458 13.2204 11.9391 13.5283 12.1611C13.8434 12.3831 14.137 12.623 14.4092 12.8809L15.5479 11.5166H16.2568V23ZM13.3027 17.1455C13.3027 16.7445 13.224 16.3577 13.0664 15.9854C12.916 15.6058 12.7083 15.2728 12.4434 14.9863C12.1784 14.6927 11.8669 14.46 11.5088 14.2881C11.1579 14.109 10.7819 14.0195 10.3809 14.0195C9.97982 14.0195 9.60026 14.0876 9.24219 14.2236C8.89128 14.3597 8.58333 14.5602 8.31836 14.8252C8.06055 15.0902 7.85645 15.4196 7.70605 15.8135C7.55566 16.2002 7.48047 16.6442 7.48047 17.1455C7.48047 17.6468 7.55566 18.0944 7.70605 18.4883C7.85645 18.875 8.06055 19.2008 8.31836 19.4658C8.58333 19.7308 8.89128 19.9313 9.24219 20.0674C9.60026 20.2035 9.97982 20.2715 10.3809 20.2715C10.7819 20.2715 11.1579 20.1855 11.5088 20.0137C11.8669 19.8346 12.1784 19.6019 12.4434 19.3154C12.7083 19.0218 12.916 18.6888 13.0664 18.3164C13.224 17.9368 13.3027 17.5465 13.3027 17.1455Z" fill="#F4F2EE"/>
</svg>
